<svg viewBox="0 0 240 80" version="1.1" xmlns="http://www.w3.org/2000/svg" xmlns:xlink="http://www.w3.org/1999/xlink">
  <!--
  VISE Logo designed by Abhishek Dutta, 28 Feb. 2020
  Font for text "VSE" : Quicksand, font-size=72, created using Inkscape
  -->
  <g transform="translate(0 -275.83)">
    <g transform="matrix(.26458 0 0 .26458 -6.7343 231.43)" aria-label="V  SE">
      <path d="m258.2 193.29q4.7168 0 7.9824 3.2655 3.2655 2.9027 3.2655 6.8938 0 2.5398-1.0885 5.4425l-96.877 231.49q-1.4513 3.2655-4.354 5.4425-2.9027 1.8142-6.1682 1.8142-3.2655 0-6.1682-1.8142-2.5398-1.8142-3.9912-5.0797l-96.514-231.13q-1.0885-2.177-1.0885-5.8054 0-4.7168 3.2655-7.6195t7.2567-2.9027q7.6195 0 10.885 7.9824l87.443 208.99 85.992-209.72q1.8142-3.2655 4.354-5.0797 2.9027-2.177 5.8054-2.177z"/>
      <path d="m606.55 451.27q-26.124 0-46.443-8.708-19.956-8.708-38.823-27.213-4.354-3.6283-4.354-8.708 0-4.354 3.2655-7.9824 3.6283-3.6284 7.9824-3.6284 4.354 0 7.9824 3.6284 28.301 31.204 70.753 31.204 26.124 0 43.177-12.336 17.416-12.336 17.416-32.292 0-15.602-8.708-25.761-8.3452-10.522-22.133-17.053-13.788-6.531-35.195-13.425-23.221-6.8939-39.186-15.239-15.602-8.3452-25.398-22.133-9.7965-14.151-9.7965-35.558 0-19.23 10.159-34.106 10.522-14.876 29.027-23.221 18.867-8.708 43.177-8.708 22.133 0 41.363 7.6195 19.593 7.2567 31.204 21.044 5.4425 6.1682 5.4425 10.522 0 3.9912-3.6283 7.6195-3.6284 3.2655-7.9824 3.2655-3.6283 0-6.1682-2.5398-9.7965-11.611-26.124-18.867t-34.106-7.2567q-26.487 0-43.177 11.974-16.69 11.611-16.69 31.929 0 21.044 15.965 32.292 15.965 11.248 45.717 20.682 25.761 7.6195 42.089 15.602 16.328 7.9824 26.487 22.859 10.522 14.513 10.522 38.46 0 18.505-10.885 33.744-10.522 14.876-29.752 23.584-18.867 8.708-43.177 8.708z"/>
      <path d="m894.12 426.23q4.7168 0 7.6195 3.2655 3.2655 3.2655 3.2655 7.6195 0 4.7168-3.2655 7.6195-2.9027 2.9027-7.6195 2.9027h-133.16q-4.7168 0-7.9824-2.9027-2.9027-3.2655-2.9027-7.9824v-232.21q0-4.7168 2.9027-7.6195 3.2655-3.2655 7.9824-3.2655h133.16q4.7168 0 7.6195 3.2655 3.2655 2.9027 3.2655 7.6195t-3.2655 7.6195q-2.9027 2.9027-7.6195 2.9027h-121.19v91.072h104.86q4.7168 0 7.6195 3.2655 3.2655 2.9027 3.2655 7.6195t-3.2655 7.6195q-2.9027 2.9027-7.6195 2.9027h-104.86v98.691z"/>
    </g>
    <g transform="translate(20 4.25)">
      <g>
        <rect x="72" y="333.58" width="10" height="10" fill="#e69f00"/>
        <rect x="72" y="315.58" width="10" height="10" fill="#56b4e9"/>
        <rect x="72" y="297.58" width="10" height="10" fill="#009e73"/>
        <rect x="72" y="279.58" width="10" height="10" fill="#f0e442"/>
      </g>

      <g fill="#e6e6e6">
        <rect x="56" y="297.58" width="10" height="10"/>
        <rect x="56" y="315.58" width="10" height="10"/>
        <rect x="88" y="297.58" width="10" height="10"/>
        <rect x="88" y="315.58" width="10" height="10"/>
      </g>

      <g>
        <rect x="88" y="279.58" width="10" height="10" fill="#0072b2"/>
        <rect x="56" y="279.58" width="10" height="10" fill="#d55e00"/>
        <rect x="56" y="333.58" width="10" height="10" fill="#cc79a7"/>
        <rect x="88" y="333.58" width="10" height="10" fill="#dd55ff"/>
      </g>
    </g>
  </g>

</svg>